# xmcd
#
# Track frame offsets: 
#        150
#        16346
#        34958
#        54428
#        74559
#        100359
#        121159
#        140873
#        159680
#        178016
#        199568
#
# Disc length: 2980 seconds
#
# Revision: 0
# Processed by: cddbd v1.5.2PL0 Copyright (c) Steve Scherf et al.
# Submitted via: ExactAudioCopy v0.99pb4
#
DISCID=9f0ba20b
DTITLE=False Icons - God Complex
DYEAR=2008
DGENRE=Industrial
TTITLE0=Decay
TTITLE1=Tranquilizer
TTITLE2=The Wheel
TTITLE3=Transform
TTITLE4=Mystified
TTITLE5=Lead The Way
TTITLE6=False Icons
TTITLE7=Deterioration
TTITLE8=Recover
TTITLE9=Defective
TTITLE10=Into The Emptiness
EXTD=
EXTT0=
EXTT1=
EXTT2=
EXTT3=
EXTT4=
EXTT5=
EXTT6=
EXTT7=
EXTT8=
EXTT9=
EXTT10=
PLAYORDER=
